<mxfile host="app.diagrams.net" agent="Mozilla/5.0 (Windows NT 10.0; Win64; x64) AppleWebKit/537.36 (KHTML, like Gecko) Chrome/135.0.0.0 Safari/537.36" version="26.2.14">
  <diagram name="Page-1" id="ReMqx8SdZacuFtLZ011M">
    <mxGraphModel dx="1878" dy="986" grid="1" gridSize="10" guides="1" tooltips="1" connect="1" arrows="1" fold="1" page="1" pageScale="1" pageWidth="1169" pageHeight="827" math="0" shadow="0">
      <root>
        <mxCell id="0" />
        <mxCell id="1" parent="0" />
        <mxCell id="y57IEgoHBKOUi_G_t4ql-1" value="Parser" style="rounded=0;whiteSpace=wrap;html=1;" vertex="1" parent="1">
          <mxGeometry x="120" y="280" width="80" height="80" as="geometry" />
        </mxCell>
        <mxCell id="y57IEgoHBKOUi_G_t4ql-2" value="" style="endArrow=classic;html=1;rounded=0;entryX=0.5;entryY=0;entryDx=0;entryDy=0;" edge="1" parent="1" target="y57IEgoHBKOUi_G_t4ql-1">
          <mxGeometry width="50" height="50" relative="1" as="geometry">
            <mxPoint x="160" y="220" as="sourcePoint" />
            <mxPoint x="159.58000000000004" y="260" as="targetPoint" />
          </mxGeometry>
        </mxCell>
        <mxCell id="y57IEgoHBKOUi_G_t4ql-3" value="" style="swimlane;startSize=0;" vertex="1" parent="1">
          <mxGeometry x="410" y="120" width="420" height="400" as="geometry" />
        </mxCell>
        <mxCell id="y57IEgoHBKOUi_G_t4ql-4" value="Event processor" style="text;html=1;align=center;verticalAlign=middle;whiteSpace=wrap;rounded=0;" vertex="1" parent="1">
          <mxGeometry x="440" y="80" width="60" height="30" as="geometry" />
        </mxCell>
        <mxCell id="y57IEgoHBKOUi_G_t4ql-5" value="" style="endArrow=classic;html=1;rounded=0;exitX=1;exitY=0.5;exitDx=0;exitDy=0;entryX=0;entryY=0.5;entryDx=0;entryDy=0;" edge="1" parent="1" source="y57IEgoHBKOUi_G_t4ql-1" target="y57IEgoHBKOUi_G_t4ql-3">
          <mxGeometry width="50" height="50" relative="1" as="geometry">
            <mxPoint x="650" y="380" as="sourcePoint" />
            <mxPoint x="700" y="330" as="targetPoint" />
          </mxGeometry>
        </mxCell>
        <mxCell id="y57IEgoHBKOUi_G_t4ql-6" value="Event" style="edgeLabel;html=1;align=center;verticalAlign=middle;resizable=0;points=[];" vertex="1" connectable="0" parent="y57IEgoHBKOUi_G_t4ql-5">
          <mxGeometry x="0.2399" y="-1" relative="1" as="geometry">
            <mxPoint x="-32" as="offset" />
          </mxGeometry>
        </mxCell>
        <mxCell id="y57IEgoHBKOUi_G_t4ql-7" value="file.txt" style="shape=note;whiteSpace=wrap;html=1;backgroundOutline=1;darkOpacity=0.05;size=15;" vertex="1" parent="1">
          <mxGeometry x="140" y="160" width="40" height="50" as="geometry" />
        </mxCell>
        <mxCell id="y57IEgoHBKOUi_G_t4ql-8" value="" style="endArrow=classic;html=1;rounded=0;exitX=1;exitY=0.5;exitDx=0;exitDy=0;entryX=0;entryY=0.5;entryDx=0;entryDy=0;" edge="1" parent="1" source="y57IEgoHBKOUi_G_t4ql-3" target="y57IEgoHBKOUi_G_t4ql-9">
          <mxGeometry width="50" height="50" relative="1" as="geometry">
            <mxPoint x="910" y="380" as="sourcePoint" />
            <mxPoint x="980" y="320" as="targetPoint" />
          </mxGeometry>
        </mxCell>
        <mxCell id="y57IEgoHBKOUi_G_t4ql-10" value="Event" style="edgeLabel;html=1;align=center;verticalAlign=middle;resizable=0;points=[];" vertex="1" connectable="0" parent="y57IEgoHBKOUi_G_t4ql-8">
          <mxGeometry x="0.0327" relative="1" as="geometry">
            <mxPoint as="offset" />
          </mxGeometry>
        </mxCell>
        <mxCell id="y57IEgoHBKOUi_G_t4ql-9" value="Outputter" style="whiteSpace=wrap;html=1;aspect=fixed;" vertex="1" parent="1">
          <mxGeometry x="1000" y="280" width="80" height="80" as="geometry" />
        </mxCell>
        <mxCell id="y57IEgoHBKOUi_G_t4ql-12" value="" style="endArrow=classic;html=1;rounded=0;exitX=0.5;exitY=1;exitDx=0;exitDy=0;" edge="1" parent="1" source="y57IEgoHBKOUi_G_t4ql-9" target="y57IEgoHBKOUi_G_t4ql-15">
          <mxGeometry width="50" height="50" relative="1" as="geometry">
            <mxPoint x="955" y="420" as="sourcePoint" />
            <mxPoint x="1040" y="440" as="targetPoint" />
          </mxGeometry>
        </mxCell>
        <mxCell id="y57IEgoHBKOUi_G_t4ql-15" value="console" style="sketch=0;pointerEvents=1;shadow=0;dashed=0;html=1;strokeColor=none;fillColor=#505050;labelPosition=center;verticalLabelPosition=bottom;verticalAlign=top;outlineConnect=0;align=center;shape=mxgraph.office.concepts.powershell;" vertex="1" parent="1">
          <mxGeometry x="1017.5" y="440" width="45" height="40" as="geometry" />
        </mxCell>
      </root>
    </mxGraphModel>
  </diagram>
</mxfile>
